<mxfile host="app.diagrams.net" modified="2023-01-26T15:21:47.351Z" agent="5.0 (Windows NT 10.0; Win64; x64) AppleWebKit/537.36 (KHTML, like Gecko) Chrome/97.0.4692.71 Safari/537.36" etag="IUYdfixjKXEeOCnvQVAx" version="20.8.10" type="github">
  <diagram name="第 1 页" id="CiVtzrzxje9XEdqbf4pX">
    <mxGraphModel dx="1434" dy="796" grid="1" gridSize="10" guides="1" tooltips="1" connect="1" arrows="1" fold="1" page="1" pageScale="1" pageWidth="827" pageHeight="1169" math="0" shadow="0">
      <root>
        <mxCell id="0" />
        <mxCell id="1" parent="0" />
        <mxCell id="qZiGoOfZCkQ0MePnuBY7-22" style="edgeStyle=orthogonalEdgeStyle;curved=1;orthogonalLoop=1;jettySize=auto;html=1;fontSize=18;" edge="1" parent="1" source="qZiGoOfZCkQ0MePnuBY7-1" target="qZiGoOfZCkQ0MePnuBY7-2">
          <mxGeometry relative="1" as="geometry" />
        </mxCell>
        <mxCell id="qZiGoOfZCkQ0MePnuBY7-1" value="&lt;font style=&quot;font-size: 18px;&quot;&gt;postProcessProperties&lt;/font&gt;" style="strokeWidth=2;html=1;shape=mxgraph.flowchart.start_1;whiteSpace=wrap;" vertex="1" parent="1">
          <mxGeometry x="356" y="180" width="200" height="70" as="geometry" />
        </mxCell>
        <mxCell id="qZiGoOfZCkQ0MePnuBY7-6" value="" style="edgeStyle=orthogonalEdgeStyle;orthogonalLoop=1;jettySize=auto;html=1;fontSize=18;curved=1;dashed=1;fillColor=#e51400;strokeColor=#B20000;" edge="1" parent="1" source="qZiGoOfZCkQ0MePnuBY7-2" target="qZiGoOfZCkQ0MePnuBY7-5">
          <mxGeometry relative="1" as="geometry" />
        </mxCell>
        <mxCell id="qZiGoOfZCkQ0MePnuBY7-7" style="edgeStyle=orthogonalEdgeStyle;rounded=0;orthogonalLoop=1;jettySize=auto;html=1;fontSize=18;" edge="1" parent="1" source="qZiGoOfZCkQ0MePnuBY7-2" target="qZiGoOfZCkQ0MePnuBY7-3">
          <mxGeometry relative="1" as="geometry" />
        </mxCell>
        <mxCell id="qZiGoOfZCkQ0MePnuBY7-8" style="edgeStyle=orthogonalEdgeStyle;rounded=0;orthogonalLoop=1;jettySize=auto;html=1;fontSize=18;" edge="1" parent="1" source="qZiGoOfZCkQ0MePnuBY7-2" target="qZiGoOfZCkQ0MePnuBY7-4">
          <mxGeometry relative="1" as="geometry" />
        </mxCell>
        <mxCell id="qZiGoOfZCkQ0MePnuBY7-2" value="发现需要注入的元素&lt;br&gt;buildAutowiringMetadata" style="rounded=1;whiteSpace=wrap;html=1;absoluteArcSize=1;arcSize=14;strokeWidth=2;fontSize=18;" vertex="1" parent="1">
          <mxGeometry x="336" y="290" width="240" height="70" as="geometry" />
        </mxCell>
        <mxCell id="qZiGoOfZCkQ0MePnuBY7-11" style="edgeStyle=orthogonalEdgeStyle;rounded=0;orthogonalLoop=1;jettySize=auto;html=1;fontSize=18;" edge="1" parent="1" source="qZiGoOfZCkQ0MePnuBY7-3" target="qZiGoOfZCkQ0MePnuBY7-9">
          <mxGeometry relative="1" as="geometry" />
        </mxCell>
        <mxCell id="qZiGoOfZCkQ0MePnuBY7-3" value="属性注入&lt;br&gt;AutowiredFieldElement" style="whiteSpace=wrap;html=1;fontSize=18;rounded=1;arcSize=14;strokeWidth=2;" vertex="1" parent="1">
          <mxGeometry x="206" y="420" width="210" height="60" as="geometry" />
        </mxCell>
        <mxCell id="qZiGoOfZCkQ0MePnuBY7-12" style="edgeStyle=orthogonalEdgeStyle;rounded=0;orthogonalLoop=1;jettySize=auto;html=1;entryX=0.5;entryY=0;entryDx=0;entryDy=0;fontSize=18;" edge="1" parent="1" source="qZiGoOfZCkQ0MePnuBY7-4" target="qZiGoOfZCkQ0MePnuBY7-9">
          <mxGeometry relative="1" as="geometry" />
        </mxCell>
        <mxCell id="qZiGoOfZCkQ0MePnuBY7-4" value="方法注入&lt;br&gt;AutowiredMethodElement" style="whiteSpace=wrap;html=1;fontSize=18;rounded=1;arcSize=14;strokeWidth=2;" vertex="1" parent="1">
          <mxGeometry x="506" y="420" width="220" height="60" as="geometry" />
        </mxCell>
        <mxCell id="qZiGoOfZCkQ0MePnuBY7-5" value="寻找类中带有 @Autowired 注解 ，@Value 注解的属性和方法" style="shape=document;whiteSpace=wrap;html=1;boundedLbl=1;fontSize=18;rounded=1;arcSize=14;strokeWidth=2;size=0.11764705882352941;" vertex="1" parent="1">
          <mxGeometry x="86" y="240" width="170" height="100" as="geometry" />
        </mxCell>
        <mxCell id="qZiGoOfZCkQ0MePnuBY7-16" style="edgeStyle=orthogonalEdgeStyle;rounded=0;orthogonalLoop=1;jettySize=auto;html=1;fontSize=18;" edge="1" parent="1" source="qZiGoOfZCkQ0MePnuBY7-9" target="qZiGoOfZCkQ0MePnuBY7-14">
          <mxGeometry relative="1" as="geometry" />
        </mxCell>
        <mxCell id="qZiGoOfZCkQ0MePnuBY7-9" value="inject" style="rounded=1;whiteSpace=wrap;html=1;absoluteArcSize=1;arcSize=14;strokeWidth=2;fontSize=18;" vertex="1" parent="1">
          <mxGeometry x="389" y="535" width="134" height="50" as="geometry" />
        </mxCell>
        <mxCell id="qZiGoOfZCkQ0MePnuBY7-17" style="edgeStyle=orthogonalEdgeStyle;rounded=0;orthogonalLoop=1;jettySize=auto;html=1;entryX=0.5;entryY=0;entryDx=0;entryDy=0;fontSize=18;" edge="1" parent="1" source="qZiGoOfZCkQ0MePnuBY7-14" target="qZiGoOfZCkQ0MePnuBY7-15">
          <mxGeometry relative="1" as="geometry" />
        </mxCell>
        <mxCell id="qZiGoOfZCkQ0MePnuBY7-14" value="AutowiredAnnotationBeanPostProcessor#resolvedCachedArgument" style="rounded=1;whiteSpace=wrap;html=1;absoluteArcSize=1;arcSize=14;strokeWidth=2;fontSize=18;" vertex="1" parent="1">
          <mxGeometry x="171" y="620" width="570" height="40" as="geometry" />
        </mxCell>
        <mxCell id="qZiGoOfZCkQ0MePnuBY7-19" style="edgeStyle=orthogonalEdgeStyle;rounded=0;orthogonalLoop=1;jettySize=auto;html=1;entryX=0.5;entryY=0;entryDx=0;entryDy=0;fontSize=18;" edge="1" parent="1" source="qZiGoOfZCkQ0MePnuBY7-15" target="qZiGoOfZCkQ0MePnuBY7-18">
          <mxGeometry relative="1" as="geometry" />
        </mxCell>
        <mxCell id="qZiGoOfZCkQ0MePnuBY7-15" value="AutowireCapableBeanFactory#resolveDependency" style="rounded=1;whiteSpace=wrap;html=1;absoluteArcSize=1;arcSize=14;strokeWidth=2;fontSize=18;" vertex="1" parent="1">
          <mxGeometry x="246" y="690" width="420" height="40" as="geometry" />
        </mxCell>
        <mxCell id="qZiGoOfZCkQ0MePnuBY7-21" style="edgeStyle=orthogonalEdgeStyle;rounded=0;orthogonalLoop=1;jettySize=auto;html=1;fontSize=18;" edge="1" parent="1" source="qZiGoOfZCkQ0MePnuBY7-18" target="qZiGoOfZCkQ0MePnuBY7-20">
          <mxGeometry relative="1" as="geometry" />
        </mxCell>
        <mxCell id="qZiGoOfZCkQ0MePnuBY7-18" value="在 BeanFactory 中寻找或创建 bean" style="rounded=1;whiteSpace=wrap;html=1;absoluteArcSize=1;arcSize=14;strokeWidth=2;fontSize=18;" vertex="1" parent="1">
          <mxGeometry x="306" y="760" width="300" height="40" as="geometry" />
        </mxCell>
        <mxCell id="qZiGoOfZCkQ0MePnuBY7-20" value="反射将 bean 注入属性或方法" style="rounded=1;whiteSpace=wrap;html=1;absoluteArcSize=1;arcSize=14;strokeWidth=2;fontSize=18;" vertex="1" parent="1">
          <mxGeometry x="326" y="840" width="260" height="40" as="geometry" />
        </mxCell>
      </root>
    </mxGraphModel>
  </diagram>
</mxfile>
